<svg width="16" height="17" viewBox="0 0 16 17" fill="none" xmlns="http://www.w3.org/2000/svg">
<g id="Arrow forward" clip-path="url(#clip0_4911_852)">
<path id="Vector" d="M3.33366 9.16657H10.7803L7.52699 12.4199C7.26699 12.6799 7.26699 13.1066 7.52699 13.3666C7.78699 13.6266 8.20699 13.6266 8.46699 13.3666L12.8603 8.97323C13.1203 8.71323 13.1203 8.29323 12.8603 8.03323L8.47366 3.63323C8.21366 3.37323 7.79366 3.37323 7.53366 3.63323C7.27366 3.89323 7.27366 4.31323 7.53366 4.57323L10.7803 7.83323H3.33366C2.96699 7.83323 2.66699 8.13323 2.66699 8.4999C2.66699 8.86657 2.96699 9.16657 3.33366 9.16657Z" fill="#282828"/>
</g>
<defs>
<clipPath id="clip0_4911_852">
<rect width="16" height="16" fill="white" transform="translate(0 0.5)"/>
</clipPath>
</defs>
</svg>
