<svg width="28" height="28" viewBox="0 0 28 28" fill="none" xmlns="http://www.w3.org/2000/svg">
<g id="Arrow forward" clip-path="url(#clip0_4911_1035)">
<path id="Vector" d="M21.7777 12.8886L9.36657 12.8886L14.7888 7.46635C15.2221 7.03301 15.2221 6.3219 14.7888 5.88857C14.3555 5.45524 13.6555 5.45524 13.2221 5.88857L5.89991 13.2108C5.46657 13.6441 5.46657 14.3441 5.8999 14.7775L13.211 22.1108C13.6444 22.5441 14.3443 22.5441 14.7777 22.1108C15.211 21.6775 15.211 20.9775 14.7777 20.5441L9.36657 15.1108L21.7777 15.1108C22.3888 15.1108 22.8888 14.6108 22.8888 13.9997C22.8888 13.3886 22.3888 12.8886 21.7777 12.8886Z" fill="white"/>
</g>
<defs>
<clipPath id="clip0_4911_1035">
<rect width="26.6667" height="26.6667" fill="white" transform="translate(27.3334 27.3334) rotate(-180)"/>
</clipPath>
</defs>
</svg>
