<svg width="16" height="17" viewBox="0 0 16 17" fill="none" xmlns="http://www.w3.org/2000/svg">
<g clip-path="url(#clip0_4911_1308)">
<path d="M3.33366 9.46759H10.7803L7.52699 12.7209C7.26699 12.9809 7.26699 13.4076 7.52699 13.6676C7.78699 13.9276 8.20699 13.9276 8.46699 13.6676L12.8603 9.27426C13.1203 9.01426 13.1203 8.59426 12.8603 8.33426L8.47366 3.93426C8.21366 3.67426 7.79366 3.67426 7.53366 3.93426C7.27366 4.19426 7.27366 4.61426 7.53366 4.87426L10.7803 8.13426H3.33366C2.96699 8.13426 2.66699 8.43426 2.66699 8.80092C2.66699 9.16759 2.96699 9.46759 3.33366 9.46759Z" fill="white"/>
</g>
<defs>
<clipPath id="clip0_4911_1308">
<rect width="16" height="16" fill="white" transform="translate(0 0.800781)"/>
</clipPath>
</defs>
</svg>
