<svg width="120" height="121" viewBox="0 0 120 121" fill="none" xmlns="http://www.w3.org/2000/svg">
<g opacity="0.06">
<path d="M57.5 10.5537L30 55.5537H85L57.5 10.5537ZM57.5 29.7537L67.15 45.5537H47.8L57.5 29.7537ZM85 65.5537C72.55 65.5537 62.5 75.6037 62.5 88.0537C62.5 100.504 72.55 110.554 85 110.554C97.45 110.554 107.5 100.504 107.5 88.0537C107.5 75.6037 97.45 65.5537 85 65.5537ZM85 100.554C78.1 100.554 72.5 94.9537 72.5 88.0537C72.5 81.1537 78.1 75.5537 85 75.5537C91.9 75.5537 97.5 81.1537 97.5 88.0537C97.5 94.9537 91.9 100.554 85 100.554ZM12.5 108.054H52.5V68.0537H12.5V108.054ZM22.5 78.0537H42.5V98.0537H22.5V78.0537Z" fill="#28C86E"/>
</g>
</svg>
