<svg width="16" height="16" viewBox="0 0 16 16" fill="none" xmlns="http://www.w3.org/2000/svg">
<g clip-path="url(#clip0_4911_1173)">
<path d="M11.927 12.6014H3.9815C3.61733 12.6014 3.31937 12.3034 3.31937 11.9392V3.99371C3.31937 3.62954 3.61733 3.33158 3.9815 3.33158H7.29214C7.65631 3.33158 7.95427 3.03362 7.95427 2.66945C7.95427 2.30528 7.65631 2.00732 7.29214 2.00732H3.31937C2.58441 2.00732 1.99512 2.60324 1.99512 3.33158V12.6014C1.99512 13.3297 2.59103 13.9256 3.31937 13.9256H12.5892C13.3175 13.9256 13.9134 13.3297 13.9134 12.6014V8.6286C13.9134 8.26443 13.6155 7.96648 13.2513 7.96648C12.8871 7.96648 12.5892 8.26443 12.5892 8.6286V11.9392C12.5892 12.3034 12.2912 12.6014 11.927 12.6014ZM9.27853 2.66945C9.27853 3.03362 9.57648 3.33158 9.94065 3.33158H11.6556L5.61034 9.37681C5.35211 9.63504 5.35211 10.0522 5.61034 10.3104C5.86857 10.5686 6.28571 10.5686 6.54394 10.3104L12.5892 4.26518V5.98009C12.5892 6.34426 12.8871 6.64222 13.2513 6.64222C13.6155 6.64222 13.9134 6.34426 13.9134 5.98009V2.00732H9.94065C9.57648 2.00732 9.27853 2.30528 9.27853 2.66945Z" fill="white"/>
</g>
<defs>
<clipPath id="clip0_4911_1173">
<rect width="15.8911" height="15.8911" fill="white" transform="translate(0 0.0219727)"/>
</clipPath>
</defs>
</svg>
