<svg width="16" height="16" viewBox="0 0 16 16" fill="none" xmlns="http://www.w3.org/2000/svg">
<g id="Launch" clip-path="url(#clip0_4911_1143)">
<path id="Vector" d="M11.927 12.5794H3.9815C3.61733 12.5794 3.31937 12.2814 3.31937 11.9173V3.97174C3.31937 3.60757 3.61733 3.30961 3.9815 3.30961H7.29214C7.65631 3.30961 7.95427 3.01165 7.95427 2.64748C7.95427 2.28331 7.65631 1.98535 7.29214 1.98535H3.31937C2.58441 1.98535 1.99512 2.58127 1.99512 3.30961V12.5794C1.99512 13.3077 2.59103 13.9037 3.31937 13.9037H12.5892C13.3175 13.9037 13.9134 13.3077 13.9134 12.5794V8.60663C13.9134 8.24246 13.6155 7.9445 13.2513 7.9445C12.8871 7.9445 12.5892 8.24246 12.5892 8.60663V11.9173C12.5892 12.2814 12.2912 12.5794 11.927 12.5794ZM9.27853 2.64748C9.27853 3.01165 9.57648 3.30961 9.94065 3.30961H11.6556L5.61034 9.35484C5.35211 9.61307 5.35211 10.0302 5.61034 10.2884C5.86857 10.5467 6.28571 10.5467 6.54394 10.2884L12.5892 4.24321V5.95812C12.5892 6.32229 12.8871 6.62025 13.2513 6.62025C13.6155 6.62025 13.9134 6.32229 13.9134 5.95812V1.98535H9.94065C9.57648 1.98535 9.27853 2.28331 9.27853 2.64748Z" fill="white"/>
</g>
<defs>
<clipPath id="clip0_4911_1143">
<rect width="15.8911" height="15.8911" fill="white"/>
</clipPath>
</defs>
</svg>
