<svg width="40" height="41" viewBox="0 0 40 41" fill="none" xmlns="http://www.w3.org/2000/svg">
<path d="M16.1333 22.7841L20 19.8508L23.85 22.7841L22.3833 18.0341L26.25 14.9674H21.5166L20 10.2841L18.4833 14.9674H13.75L17.6 18.0341L16.1333 22.7841ZM33.3333 16.6341C33.3333 9.26745 27.3666 3.30078 20 3.30078C12.6333 3.30078 6.66663 9.26745 6.66663 16.6341C6.66663 20.0174 7.93329 23.0841 9.99996 25.4341V38.3008L20 34.9674L30 38.3008V25.4341C32.0666 23.0841 33.3333 20.0174 33.3333 16.6341ZM20 6.63411C25.5166 6.63411 30 11.1174 30 16.6341C30 22.1508 25.5166 26.6341 20 26.6341C14.4833 26.6341 9.99996 22.1508 9.99996 16.6341C9.99996 11.1174 14.4833 6.63411 20 6.63411ZM20 31.6341L13.3333 33.3341V28.1674C15.3 29.3008 17.5666 29.9674 20 29.9674C22.4333 29.9674 24.7 29.3008 26.6666 28.1674V33.3341L20 31.6341Z" fill="#28C86E"/>
</svg>
