<svg width="180" height="47" viewBox="0 0 180 47" fill="none" xmlns="http://www.w3.org/2000/svg">
<path d="M107.342 39.6568C103.621 39.6568 100.104 38.321 97.6921 35.9917C95.2668 33.6496 93.8757 30.2191 93.8757 26.5798C93.8757 22.9408 95.2668 19.5103 97.6921 17.1682C100.104 14.8392 103.621 13.5034 107.342 13.5034C111.063 13.5034 114.581 14.8392 116.993 17.1682C119.418 19.5105 120.809 22.9409 120.809 26.5798C120.809 30.219 119.418 33.6494 116.993 35.9917C114.581 38.321 111.063 39.6568 107.342 39.6568ZM107.342 19.5393C104.053 19.5393 100.556 22.0068 100.556 26.5798C100.556 31.1531 104.053 33.6209 107.342 33.6209C110.632 33.6209 114.128 31.1531 114.128 26.5798C114.128 22.0068 110.632 19.5393 107.342 19.5393Z" fill="#282828"/>
<path d="M76.0197 39.6566C70.7321 39.6566 65.1372 37.3967 62.2942 35.4088V28.0781C65.6835 30.8322 70.7913 33.2872 75.4979 33.3547C78.1245 33.3924 80.9302 33.1313 82.4496 31.558C83.0653 30.9202 83.3485 30.1447 83.315 29.1871C83.2106 26.1974 78.3582 25.604 75.3966 25.2258C69.9326 24.528 66.7585 23.3626 64.7667 21.4535C62.762 19.5319 62.3412 17.3486 62.3412 15.8555C62.3412 13.0281 63.6477 10.6407 66.1194 8.95134C68.491 7.33043 71.7889 6.47363 75.6563 6.47363C79.5597 6.47363 83.7059 7.47169 87.0459 9.26298V16.2392C83.7063 13.7343 79.3773 12.5078 75.6563 12.5078C71.0544 12.5078 68.9586 14.1538 68.9586 15.6649C68.9586 16.5914 69.5961 17.4353 70.7539 17.9338C72.0524 18.4929 74.0157 18.7895 75.9154 19.0453C78.2454 19.359 82.4804 20.0428 84.6672 21.0968C88.272 22.8342 90.0996 25.4735 90.0996 29.0968C90.0996 35.6103 84.7045 39.6566 76.0197 39.6566Z" fill="#282828"/>
<path d="M136.326 39.6436C133.865 39.6423 131.914 38.2328 130.833 35.675C130.056 33.8379 119.293 6.75342 119.293 6.75342H126.718L136.329 32.8807L146.098 6.75342H153.635C153.635 6.75342 142.605 33.8452 141.819 35.6769C140.722 38.2335 138.772 39.6423 136.327 39.6436H136.326Z" fill="#282828"/>
<path d="M165.065 39.657C161.461 39.657 158.145 38.3547 155.727 35.9901C153.315 33.6308 151.931 30.2009 151.931 26.5799C151.931 22.9591 153.315 19.5294 155.727 17.1701C158.145 14.8057 161.461 13.5036 165.065 13.5036C168.213 13.5036 170.851 14.4368 173.117 16.3545L178.471 13.2085V31.0039C178.471 32.7389 178.689 33.3745 180 33.3745V39.3773C177.255 39.4828 174.929 38.17 173.656 36.3297C171.275 38.5677 168.461 39.657 165.065 39.657ZM165.398 19.5396C162.108 19.5396 158.612 22.0071 158.612 26.5799C158.612 31.1533 162.108 33.6211 165.398 33.6211C168.687 33.6211 172.184 31.1533 172.184 26.5799C172.184 22.0071 168.687 19.5396 165.398 19.5396Z" fill="#282828"/>
<path d="M26.0889 0.00186762H15.3782C14.7697 0.00186762 14.1379 -0.00441191 13.0774 0.0326187C10.359 0.127548 7.81072 0.839279 5.71345 2.27129C2.26541 4.62561 0.0020752 8.58719 0.0020752 13.0774C0.0020752 17.083 1.8033 20.6681 4.63998 23.0666C6.91722 24.992 9.85153 26.0095 13.0774 26.1222C14.2538 26.1633 14.8124 26.1529 15.3782 26.1529H21.2519C18.7942 23.5405 17.2858 20.0253 17.2858 16.164C17.2858 10.6179 19.5305 3.72897 26.0889 0.00186762Z" fill="#28C86E"/>
<path d="M38.0487 0C29.1217 0 21.885 7.2367 21.885 16.1637H34.2344C35.7581 16.1637 37.1456 16.1644 38.0487 16.1329C39.2938 16.0894 40.4743 15.882 41.5279 15.379C44.2507 14.079 46.1305 11.3001 46.1305 8.08183C46.1305 3.61835 42.5122 0 38.0487 0Z" fill="#008482"/>
<path d="M20.0416 46.1283H30.7523C31.3608 46.1283 31.9926 46.1346 33.0531 46.0975C35.7715 46.0026 38.3198 45.2909 40.4171 43.8589C43.8651 41.5045 46.1284 37.543 46.1284 33.0528C46.1284 29.0471 44.3272 25.4621 41.4905 23.0636C39.2133 21.1381 36.279 20.1206 33.0531 20.008C31.8767 19.9669 31.3181 19.9772 30.7523 19.9772H24.8786C27.3363 22.5897 28.8447 26.1049 28.8447 29.9662C28.8447 35.5123 26.6 42.4012 20.0416 46.1283Z" fill="#28C86E"/>
<path d="M8.08183 46.1305C17.0088 46.1305 24.2455 38.8938 24.2455 29.9668H11.8961C10.3724 29.9668 8.98491 29.966 8.08183 29.9976C6.83669 30.041 5.65618 30.2484 4.60265 30.7514C1.87981 32.0515 2.90769e-10 34.8304 0 38.0486C-3.98564e-10 42.5121 3.61836 46.1305 8.08183 46.1305Z" fill="#008482"/>
</svg>
