<svg width="120" height="120" viewBox="0 0 120 120" fill="none" xmlns="http://www.w3.org/2000/svg">
<g opacity="0.06">
<path d="M100 15.636H20C14.5 15.636 10 20.0865 10 25.5261V84.8668C10 90.3063 14.5 94.7569 20 94.7569H40V104.647H80V94.7569H100C105.5 94.7569 109.95 90.3063 109.95 84.8668L110 25.5261C110 20.0865 105.5 15.636 100 15.636ZM100 84.8668H20V25.5261H100V84.8668ZM25 70.0316V79.9217H35C35 74.4327 30.55 70.0316 25 70.0316ZM25 55.1964V62.2679C34.85 62.2679 42.85 70.1799 42.85 79.9217H50C50 66.2733 38.8 55.1964 25 55.1964ZM25 40.3613V47.5316C43.05 47.5316 57.75 62.0206 57.75 79.9217H65C65 58.0646 47.05 40.3613 25 40.3613Z" fill="#28C86E"/>
</g>
</svg>
