<svg width="34" height="35" viewBox="0 0 34 35" fill="none" xmlns="http://www.w3.org/2000/svg">
<path d="M29.75 6.46737C28.1775 5.97153 26.4491 5.75903 24.7916 5.75903C22.0291 5.75903 19.0541 6.3257 17 7.88403C14.9458 6.3257 11.9708 5.75903 9.20829 5.75903C6.44579 5.75903 3.47079 6.3257 1.41663 7.88403V28.6382C1.41663 28.9924 1.77079 29.3465 2.12496 29.3465C2.26663 29.3465 2.33746 29.2757 2.47913 29.2757C4.39163 28.3549 7.15413 27.7174 9.20829 27.7174C11.9708 27.7174 14.9458 28.284 17 29.8424C18.9125 28.6382 22.3833 27.7174 24.7916 27.7174C27.1291 27.7174 29.5375 28.1424 31.5208 29.2049C31.6625 29.2757 31.7333 29.2757 31.875 29.2757C32.2291 29.2757 32.5833 28.9215 32.5833 28.5674V7.88403C31.7333 7.24653 30.8125 6.82153 29.75 6.46737ZM29.75 25.5924C28.1916 25.0965 26.4916 24.884 24.7916 24.884C22.3833 24.884 18.9125 25.8049 17 27.009V10.7174C18.9125 9.5132 22.3833 8.59237 24.7916 8.59237C26.4916 8.59237 28.1916 8.80487 29.75 9.3007V25.5924Z" fill="#28C86E"/>
<path d="M24.7916 14.259C26.0383 14.259 27.2425 14.3865 28.3333 14.6274V12.474C27.2141 12.2615 26.01 12.134 24.7916 12.134C22.3833 12.134 20.2016 12.5449 18.4166 13.3099V15.6615C20.0175 14.7549 22.2416 14.259 24.7916 14.259Z" fill="#28C86E"/>
<path d="M18.4166 17.0782V19.4299C20.0175 18.5232 22.2416 18.0274 24.7916 18.0274C26.0383 18.0274 27.2425 18.1549 28.3333 18.3957V16.2424C27.2141 16.0299 26.01 15.9024 24.7916 15.9024C22.3833 15.9024 20.2016 16.3274 18.4166 17.0782Z" fill="#28C86E"/>
<path d="M24.7916 19.6849C22.3833 19.6849 20.2016 20.0957 18.4166 20.8607V23.2124C20.0175 22.3057 22.2416 21.8099 24.7916 21.8099C26.0383 21.8099 27.2425 21.9374 28.3333 22.1782V20.0249C27.2141 19.7982 26.01 19.6849 24.7916 19.6849Z" fill="#28C86E"/>
</svg>
