<svg width="17" height="17" viewBox="0 0 17 17" fill="none" xmlns="http://www.w3.org/2000/svg">
<g clip-path="url(#clip0_4911_1270)">
<path d="M3.16663 6.1342H5.83329V3.46753H3.16663V6.1342ZM7.16663 14.1342H9.83329V11.4675H7.16663V14.1342ZM3.16663 14.1342H5.83329V11.4675H3.16663V14.1342ZM3.16663 10.1342H5.83329V7.46753H3.16663V10.1342ZM7.16663 10.1342H9.83329V7.46753H7.16663V10.1342ZM11.1666 3.46753V6.1342H13.8333V3.46753H11.1666ZM7.16663 6.1342H9.83329V3.46753H7.16663V6.1342ZM11.1666 10.1342H13.8333V7.46753H11.1666V10.1342ZM11.1666 14.1342H13.8333V11.4675H11.1666V14.1342Z" fill="white"/>
</g>
<defs>
<clipPath id="clip0_4911_1270">
<rect width="16" height="16" fill="white" transform="translate(0.5 0.800781)"/>
</clipPath>
</defs>
</svg>
