<svg width="200" height="52" viewBox="0 0 200 52" fill="none" xmlns="http://www.w3.org/2000/svg">
<g id="Group 1">
<path id="Vector" d="M119.269 44.0632C115.135 44.0632 111.227 42.5789 108.547 39.9909C105.852 37.3886 104.307 33.5769 104.307 29.5332C104.307 25.4899 105.852 21.6782 108.547 19.0759C111.227 16.4881 115.135 15.0039 119.269 15.0039C123.404 15.0039 127.312 16.4881 129.992 19.0758C132.687 21.6785 134.233 25.49 134.233 29.5332C134.233 33.5768 132.687 37.3884 129.992 39.9909C127.312 42.5789 123.404 44.0632 119.269 44.0632ZM119.269 21.7105C115.614 21.7105 111.73 24.4521 111.73 29.5332C111.73 34.6147 115.614 37.3567 119.269 37.3567C122.925 37.3567 126.81 34.6147 126.81 29.5332C126.81 24.4521 122.925 21.7105 119.269 21.7105Z" fill="white"/>
<path id="Vector_2" d="M84.4654 44.0633C78.5903 44.0633 72.3738 41.5523 69.2148 39.3435V31.1983C72.9808 34.2584 78.6561 36.9862 83.8856 37.0613C86.804 37.1031 89.9215 36.813 91.6097 35.0649C92.2939 34.3562 92.6086 33.4945 92.5713 32.4305C92.4553 29.1087 87.0637 28.4494 83.773 28.0291C77.702 27.2537 74.1752 25.9589 71.9621 23.8376C69.7346 21.7025 69.2671 19.2766 69.2671 17.6176C69.2671 14.4761 70.7187 11.8235 73.4651 9.94637C76.1001 8.14535 79.7645 7.19336 84.0616 7.19336C88.3988 7.19336 93.0057 8.30231 96.7167 10.2926V18.044C93.006 15.2608 88.196 13.898 84.0616 13.898C78.9484 13.898 76.6197 15.7269 76.6197 17.4059C76.6197 18.4353 77.3281 19.373 78.6145 19.9269C80.0573 20.5481 82.2388 20.8776 84.3495 21.1619C86.9384 21.5104 91.6439 22.2702 94.0737 23.4413C98.0791 25.3718 100.11 28.3043 100.11 32.3302C100.11 39.5674 94.1152 44.0633 84.4654 44.0633Z" fill="white"/>
<path id="Vector_3" d="M151.473 44.048C148.738 44.0466 146.571 42.4805 145.369 39.6385C144.506 37.5973 132.547 7.50342 132.547 7.50342H140.796L151.476 36.5337L162.33 7.50342H170.704C170.704 7.50342 158.449 37.6054 157.576 39.6406C156.357 42.4813 154.19 44.0466 151.473 44.048H151.473Z" fill="white"/>
<path id="Vector_4" d="M183.406 44.0635C179.401 44.0635 175.716 42.6165 173.03 39.9892C170.35 37.3677 168.812 33.5567 168.812 29.5334C168.812 25.5103 170.35 21.6994 173.03 19.0781C175.716 16.451 179.401 15.0041 183.406 15.0041C186.904 15.0041 189.834 16.041 192.353 18.1718L198.301 14.6763V34.4489C198.301 36.3767 198.543 37.0829 200 37.0829V43.7527C196.95 43.87 194.366 42.4112 192.951 40.3665C190.306 42.8532 187.179 44.0635 183.406 44.0635ZM183.775 21.7108C180.12 21.7108 176.235 24.4524 176.235 29.5334C176.235 34.6149 180.12 37.3569 183.775 37.3569C187.43 37.3569 191.315 34.6149 191.315 29.5334C191.315 24.4524 187.43 21.7108 183.775 21.7108Z" fill="white"/>
<path id="Vector_5" d="M28.9873 0.00240065H17.0866C16.4105 0.00240065 15.7084 -0.0045766 14.5301 0.0365685C11.5097 0.142046 8.67822 0.932857 6.34792 2.52398C2.51677 5.13989 0.00195312 9.54164 0.00195312 14.5307C0.00195312 18.9815 2.00331 22.9648 5.15518 25.6298C7.68544 27.7693 10.9458 28.8998 14.5301 29.025C15.8372 29.0706 16.4578 29.0591 17.0866 29.0591H23.6128C20.8821 26.1564 19.2061 22.2506 19.2061 17.9603C19.2061 11.798 21.7002 4.14362 28.9873 0.00240065Z" fill="#28C86E"/>
<path id="Vector_6" d="M42.276 0C32.3572 0 24.3164 8.04078 24.3164 17.9596H38.0379C39.731 17.9596 41.2726 17.9605 42.276 17.9254C43.6595 17.8771 44.9712 17.6467 46.1418 17.0878C49.1672 15.6433 51.2558 12.5556 51.2558 8.9798C51.2558 4.02039 47.2355 0 42.276 0Z" fill="#008482"/>
<path id="Vector_7" d="M22.2695 51.2538H34.1702C34.8463 51.2538 35.5484 51.2608 36.7267 51.2196C39.7471 51.1142 42.5786 50.3233 44.9089 48.7322C48.74 46.1163 51.2549 41.7146 51.2549 36.7255C51.2549 32.2747 49.2535 28.2914 46.1016 25.6264C43.5714 23.487 40.311 22.3564 36.7267 22.2313C35.4196 22.1856 34.799 22.1971 34.1702 22.1971H27.644C30.3747 25.0998 32.0507 29.0056 32.0507 33.2959C32.0507 39.4582 29.5566 47.1126 22.2695 51.2538Z" fill="#28C86E"/>
<path id="Vector_8" d="M8.97981 51.2565C18.8986 51.2565 26.9394 43.2157 26.9394 33.2969H13.2179C11.5249 33.2969 9.98322 33.296 8.97981 33.331C7.59632 33.3794 6.28465 33.6098 5.11405 34.1687C2.08868 35.6132 3.23076e-10 38.7009 0 42.2767C-4.42849e-10 47.2361 4.0204 51.2565 8.97981 51.2565Z" fill="#008482"/>
</g>
</svg>
